<?xml version="1.0" encoding="utf-8"?>
<!-- Generator: Adobe Illustrator 23.0.2, SVG Export Plug-In . SVG Version: 6.00 Build 0)  -->
<svg version="1.1" id="Layer_1" xmlns="http://www.w3.org/2000/svg" xmlns:xlink="http://www.w3.org/1999/xlink" x="0px" y="0px"
	 viewBox="0 0 354.33 283.46" style="enable-background:new 0 0 354.33 283.46;" xml:space="preserve">
<g>
	<path d="M-300.23,226.74c-0.01,0-0.02-0.01-0.03-0.01c0,0.01,0,0.02,0,0.02l0,0c0.01,0,0.01,0.01,0.02,0.01
		C-300.24,226.75-300.24,226.74-300.23,226.74L-300.23,226.74z"/>
	<path d="M-301.87,216.82c0.44-1.94,0.15-2.58-1.76-2.84c-2.23-0.31-4.45-0.68-6.68-1.03c-1.11-0.26-2.23-0.52-3.34-0.79
		c-0.61-0.16-1.22-0.32-1.83-0.48c0,0,0,0,0,0c-0.71-0.41-1.52-0.5-2.29-0.71c-2.31-0.64-4.65-1.22-6.43-3
		c-0.51-0.81-1.21-1.39-2.1-1.74c0,0,0,0,0,0c0,0,0,0,0,0c-0.59-0.65-1.25-1.25-1.75-1.96c-1.06-1.5-2.16-2.98-2.88-4.7
		c-1.18-2.82-1.56-5.73-1.29-8.75c-0.01-0.03-0.02-0.05-0.03-0.08c0.01,0.03,0.02,0.05,0.03,0.08c0.54-2.68,0.89-5.4,1.89-7.98
		c0.3-0.78,0.89-1.6,0.39-2.54c0,0,0,0,0,0c-0.18-0.47-0.43-0.87-0.96-1.01c-2.78-0.77-5.37-2.01-7.94-3.31
		c-3.6-1.82-6.36-4.42-8.13-8.06c-0.98-2.01-1.57-4.15-2.17-6.3c-0.26-2.26-0.07-4.53-0.2-6.79c-0.04-0.05-0.05-0.11-0.06-0.17
		c0.02,0.06,0.04,0.11,0.06,0.17c0.25-1.12,0.51-2.23,0.54-3.38c0,0,0,0,0,0c0.48-2.29,1.5-4.37,2.49-6.46c0,0,0,0,0,0
		c0.42-0.35,0.65-0.83,0.84-1.31c0.7-1.8,1.74-3.38,3.04-4.78c0.78-0.84,0.74-1.49-0.05-2.37c-2.19-2.44-3.91-5.19-4.46-8.47
		c-0.35-2.11-0.44-4.26-0.65-6.39c0,0,0,0,0,0c0.13-1.34,0.26-2.68,0.66-3.97c0,0,0,0,0,0c1.76-3.6,3.77-7.03,6.8-9.76
		c1.74-1.57,3.73-2.8,5.94-3.42c1.16-0.33,0.97-0.56,0.48-1.2c-1.24-1.64-1.45-3.43-0.99-5.41c0.21-0.91,0.51-1.79,0.74-2.69
		c1.08-2.17,2.34-4.27,3.84-6.13c2.07-2.56,4.39-4.96,7.36-6.57c4.24-1.79,8.2-4.4,13.03-4.5c0.68-0.06,1.47-0.06,0.66-1.05
		c0,0,0,0,0,0c0,0,0,0,0,0c-1.96-3.26-2.04-6.8-1.54-10.42c0,0,0,0,0,0c0.89-2.89,1.56-5.86,2.97-8.57c0.53-1.11,1.06-2.23,1.6-3.34
		c1.96-3.24,4.32-6.14,7.33-8.47c4.28-3.32,8.97-3.83,13.97-1.96c1.74,0.65,3.49,1.31,5.06,2.33c0.68,0.5,1.38,0.96,1.95,1.6
		c0.42,0.46,0.69,0.33,1.01-0.19c0.33-0.53,0.05-1.24,0.58-1.67c-0.02-0.01-0.04-0.01-0.06-0.01c0.02,0,0.04,0,0.06,0.01
		c0.12-0.15,0.27-0.29,0.36-0.47c1.38-2.68,3.12-5.13,5.42-7.06c5.2-4.36,10.61-8.43,17.06-10.85c0.82-0.31,1.7-0.45,2.44-0.95
		c0,0,0,0,0,0c1.86-0.59,3.77-0.91,5.72-0.96c0.82-0.06,1.66,0.16,2.23,0.65c1.62,1.37,3.66,1.98,5.39,3.14
		c1.22,1.93,2.87,3.55,3.86,5.63c0.14,0.29,0.56,0.2,0.84-0.01c0.27,0.02,0.48,0.09,0.72-0.22c1.54-1.94,3.44-3.45,5.64-4.58
		c0.69-0.21,1.01-0.88,1.59-1.26c2.19-1.45,4.5-2.65,6.83-3.83c0,0,0,0,0,0c0.85,0.05,1.5-0.52,2.27-0.74
		c2.78-0.78,5.54-1.59,8.41-1.98c1.55,0.01,3.1-0.13,4.66,0.05c1.16,0.13,2.33,0.19,3.49,0.29c1.92,0.41,3.7,1.27,5.57,1.82
		c0,0,0,0,0,0c0,0,0,0,0,0c0.15-0.02,0.3-0.04,0.46-0.07l0,0c0.99,1.53,1.99,3.06,2.98,4.6l0,0v0c0.85,0.8,0.6,2.18,1.53,2.94
		c0.07,0.31,0.1,0.64,0.22,0.93c0.21,0.49,0.31,1.1,1,1.22c0.72,0.12,0.9-0.54,1.29-0.9c1.34-0.48,2.14-1.81,3.48-2.24
		c1.21-0.39,2.41-0.78,3.55-1.36c0,0,0,0,0,0c0,0,0,0,0,0c1.1-0.33,2.19-0.65,3.29-0.98c0.65,0.2,0.99-0.31,1.41-0.63c0,0,0,0,0,0
		c0.08,0.02,0.15,0.02,0.23,0.02c0.7,0.47,0.98-0.44,1.59-0.46c1.65-0.05,3.26-0.32,4.75-1.1v0l0,0c4.04-0.29,8.09-0.28,12.13-0.03
		c1.76,0.11,3.51,0.4,5.26,0.6l0,0c1.34,0.62,2.8,0.84,4.18,1.3c0,0,0,0,0,0c1.72,0.98,3.18,2.24,4.43,3.8
		c0.99,1.24,1.26,2.78,2,4.12l0,0l0,0c0.66,0.45,1.28,0.24,1.92-0.06c1.75-0.85,3.53-1.72,5.44-2.05c4.37-0.76,8.77-0.55,13.14,0.15
		c1.92,0.31,3.83,0.72,5.75,1.09c0.36,0.38,0.86,0.43,1.32,0.56c2.83,0.75,5.57,1.72,7.96,3.46c1.83,1.34,3.54,2.84,5.03,4.56
		c0.97,1.12,1.59,2.44,1.48,4c-0.12,1.72,0,1.83,1.86,1.75c4.37-0.5,8.51,0.67,12.44,2.26c3.7,1.5,7.23,3.48,10.36,6.05
		c0.81,0.91,1.77,1.64,2.57,2.57c2.65,3.09,4.48,6.45,3.96,10.7c-0.11,0.93,0.6,0.89,1.19,0.97c1.74,0.46,3.63,0.67,4.86,2.18
		c1.29,1.58,2.75,3.04,3.74,4.86l0,0c0,0,0,0,0,0c2.21,3.96,4.4,7.92,5.64,12.32c0,0,0,0,0,0c0.03,0.36,0.02,0.73,0.09,1.08
		c0.77,4.09-0.79,9.59-5.11,11.06c-0.93,0.32-0.62,0.99-0.02,1.48c2.2,1.8,3.49,4.18,4.34,6.84c0.31,0.96,0.66,1.9,1,2.85
		c0.08,0.43,0.16,0.87,0.24,1.3c0.15,0.87,0.31,1.74,0.46,2.61c0,0,0,0,0,0l0,0c-0.47,0.53,0.5,0.92,0.18,1.35
		c-0.7,0.95-0.22,1.94-0.21,2.92c0.3,0.73-0.22,1.43-0.07,2.15c0,0,0,0,0,0c-0.09,0.58-0.15,1.17-0.28,1.74
		c-0.28,1.15-0.5,2.33-1.48,3.15c-0.3,0.98-0.33,1.01-1.07,1.24c-0.32,0.54-1.26,0.62-1.12,1.5c-0.23,0.79,0.31,1.15,0.85,1.51
		c0.1,0.33,0.58,0.37,0.58,0.78c0,0,0.01,0.01,0.02,0.03l-0.02-0.03c-0.79-0.01-0.52,0.51-0.27,0.73c0.64,0.59,0.82,1.45,1.38,2.08
		c0.36,1.18,0.97,2.22,1.77,3.16c-0.2,1.03,0.24,1.79,0.97,2.42c-0.01-0.78,0.44-1.58-0.21-2.26c0,0,0,0,0,0
		c-0.22-1.24-1.26-2.13-1.45-3.38c-0.43-1.11-1.02-2.09-2.12-2.66l0,0c0.42-0.1,0.59-0.32,0.48-0.79c-0.1-0.45-0.26-0.66-0.73-0.54
		c0,0,0,0,0,0c0,0,0,0,0,0c-0.28-0.47-0.08-0.84,0.25-1.19c0.62-0.64,1.1-1.39,1.52-2.18c1.1-1.85,1.91-3.8,2.12-5.97
		c-0.02-0.68,0.53-1.27,0.26-1.98c0,0,0,0,0,0c0.23-0.35-0.17-0.59-0.17-0.96c-0.01-1.17-0.34-2.34-0.55-3.5
		c0.11-0.65-0.03-1.24-0.4-1.78c0.32-0.67-0.08-1.22-0.3-1.8l0,0c-0.28-1.69-0.94-3.27-1.72-4.77c-0.82-1.57-1.57-3.21-2.9-4.45
		c-0.99-0.92-1.03-1.12,0.16-1.74c1.83-0.96,2.87-2.56,3.74-4.31c1.18-2.39,1.13-4.93,0.75-7.49c0.04-0.52,0.14-1.04,0.1-1.55
		c-0.22-2.63-1.44-4.89-2.82-7.06c-0.4-0.63-0.59-1.44-1.36-1.79c0,0,0,0,0,0c-1.44-2.41-3.21-4.59-4.89-6.83
		c-0.75-1-1.55-2.12-3-2.28c0,0,0,0,0,0c0,0,0,0,0,0c-0.7-0.19-1.39-0.35-2.13-0.35c-0.93-0.01-1.43-0.41-1.28-1.54
		c0.27-1.92-0.15-3.78-1.08-5.47c-1.46-2.67-3.36-5.01-5.65-7.02c0,0,0,0,0,0c-2.45-2.29-5.44-3.71-8.33-5.32
		c-3.32-1.85-6.96-2.53-10.54-3.45c-1.49-0.38-3.12-0.48-4.68,0.02c0,0,0,0,0,0c-0.94-0.03-1.34-0.36-1.19-1.43
		c0.16-1.17-0.1-2.4-0.85-3.34c-2.33-2.94-5.11-5.38-8.58-6.92c-1.76-0.78-3.57-1.47-5.36-2.2c0,0,0,0,0,0
		c-0.85-0.37-1.74-0.64-2.64-0.87c-3.93-1.03-7.93-1.62-11.98-1.45c-2.24,0.1-4.51-0.07-6.71,0.71c-1.63,0.58-3.27,1.14-4.87,1.8
		c-0.58,0.24-1.07,0.36-1.54-0.15c0,0,0,0,0,0c-0.93-3.72-3.14-6.34-6.69-7.81c0,0,0,0,0,0c-0.38-0.34-0.88-0.38-1.34-0.53
		c-4.13-1.34-8.38-1.58-12.68-1.59c-2.54-0.01-5.08,0.03-7.6,0.4c-2.02,0.41-4.04,0.83-6.06,1.24c-1.9,0.1-3.63,0.81-5.35,1.55
		c0,0,0,0,0,0c-0.75-0.02-1.36,0.34-2,0.68c-1.69,0.9-3.36,1.8-4.83,3.05c-0.83,0.83-1.33,0.37-1.72-0.46
		c-0.17-0.36-0.12-0.8-0.43-1.09c-0.08-1.06-0.35-2.03-1.34-2.62c0,0,0,0,0,0c-0.89-1.6-1.7-3.28-3.25-4.4
		c-1.04-1.36-2.58-1.14-4.01-1.25c0,0,0,0,0,0c-3.82-0.82-7.69-0.95-11.57-0.69c0,0,0,0,0,0c-3.57-0.09-6.71,1.42-9.9,2.7
		c-2.01,0.87-3.91,1.96-5.75,3.13c-1.11,0.71-2.44,1.11-3.26,2.24l0,0c-0.07-0.03-0.18-0.12-0.21-0.09
		c-1.48,1.14-3.01,2.22-4.34,3.55c-0.34,0.17-0.68,0.34-1.02,0.52c-0.14-0.73-0.75-1.19-1.12-1.78c-0.83-1.34-1.9-2.52-3.24-3.42
		c-1.94-1.88-4.05-3.47-6.85-3.83l0,0c-1.44-0.22-2.87-0.31-4.32,0.07c-5.42,1.41-10.28,3.91-14.9,7.06
		c-4.44,3.03-8.72,6.14-11.63,10.78c-0.79,1.26-1.52,2.57-2.28,3.85c0,0,0,0,0,0c-0.44-0.13-0.94-0.11-1.24-0.54c0,0,0,0,0,0
		c-0.43-0.68-1.05-1.09-1.78-1.4c-1.19-0.5-2.42-0.92-3.62-1.38c-4.59-1.78-9.02-1.8-13.38,0.8c-3.95,2.35-7.12,5.41-9.32,9.45v0
		l0,0c-0.84,0.91-1.16,2.14-1.9,3.11v0c-0.96,2.06-1.56,4.25-2.25,6.4c-0.57,1.77-0.91,3.6-0.56,5.49
		c-0.06,0.76-0.25,1.54-0.16,2.28c0.24,1.85,0.35,3.76,1.63,5.3c0,0,0,0,0,0c0.15,0.5,0.22,0.99-0.03,1.48l0,0c0,0,0,0,0,0
		c-0.63-0.18-1.27-0.28-1.92-0.17c-3.41,0.59-6.55,1.98-9.63,3.46c-0.5,0.24-1.4-0.05-1.5,0.88c0,0,0,0,0,0
		c-1.45,0.88-2.8,1.9-4.11,2.98c-2.93,2.42-5.42,5.18-6.8,8.8c0,0,0,0,0,0l0,0c-1.56,2.81-2.25,5.71-0.93,8.83
		c0.3,0.71,0.19,1.18-0.62,1.52c-5.29,2.27-8.82,6.31-11.24,11.41l0,0l0,0c-0.64,1.24-1.16,2.51-1.26,3.92c0,0,0,0,0,0c0,0,0,0,0,0
		c-0.12,0.25-0.28,0.5-0.35,0.76c-0.63,2.33-0.4,4.71-0.13,7.04c0.28,2.38,1.07,4.64,2.69,6.51c0,0,0,0,0,0
		c0.87,0.95,1.72,1.92,2.62,2.84c0.68,0.7,0.6,1.33-0.02,2c-1.41,1.53-2.45,3.29-3.2,5.23c-1.4,1.65-1.82,3.73-2.53,5.69
		c-0.19,0.25-0.29,0.53-0.35,0.82c-0.77,2.05-0.84,4.22-0.82,6.4c0,0,0,0,0,0c0,0,0,0,0,0c-0.2,1.46-0.09,2.91,0.13,4.36
		c0,0.07,0.01,0.15,0.03,0.23c0.31,2.49,1.32,4.77,2.35,6.99c1.33,2.85,3.15,5.43,6.04,6.94c2.86,1.49,5.64,3.16,8.78,4.07
		c0.83,0.24,1.71,0.48,2.44,1.02c-0.02,1.05-0.67,1.88-1.03,2.8c-1.09,2.76-2.18,5.52-1.62,8.59c-0.35,1.2-0.02,2.37,0.19,3.54
		c0,0,0,0,0,0v0c0.29,3.21,1.72,5.96,3.58,8.48c2.61,3.53,5.69,6.49,10.19,7.49c0,0,0,0,0,0c0.33,0.14,0.65,0.33,0.99,0.42
		c1.99,0.49,3.96,1.03,5.9,1.73c1.09,0.39,2.2,0.97,3.45,0.71c0.19,0.06,0.38,0.15,0.57,0.17c1.56,0.2,3.12,0.41,4.68,0.59
		c0.82,0.1,1.15,0.41,1.1,1.35c-0.04,0.63-0.39,1.1-0.42,1.71c-0.09,2.49,0.49,4.86,1.15,7.23c0.19,0.68,0.53,1.26,1.3,1.41
		c-0.16-1.27-0.79-2.39-1.13-3.6C-301.97,221.05-302.34,218.93-301.87,216.82z M-146.29,28.77c-0.21-0.12-0.43-0.24-0.65-0.34
		C-146.7,28.45-146.39,28.43-146.29,28.77z M-276.27,46.24C-276.27,46.24-276.27,46.24-276.27,46.24
		C-276.27,46.24-276.27,46.24-276.27,46.24z M-332.96,191.91L-332.96,191.91C-332.96,191.91-332.96,191.91-332.96,191.91
		C-332.96,191.91-332.96,191.91-332.96,191.91z"/>
	<path d="M-57.64,198.81c0.62-0.8,0.15-1.7,0.22-2.55c0.35-4.11,0.25-8.18-0.77-12.23c-0.19-0.75-0.42-0.79-0.94-0.8
		c0.03,0.24,0.03,0.48,0.1,0.7c0.66,2.21,1.04,4.47,1.05,6.76c0.01,2.67-0.19,5.34-0.29,8.02c-0.43,0.37,0.02,0.86-0.2,1.33
		c-0.42,0.89-0.48,1.92-0.56,2.91c-0.48,1.15-0.97,2.31-1.45,3.46c-0.71,1.06-1.52,2.06-1.97,3.27c0,0,0,0,0,0
		c-1,1.06-1.94,2.18-3.02,3.15c-0.99,0.89-2.24,1.5-3.15,2.45c-0.92,0.98-2.28,0.69-3.3,1.48c-0.36,0.28-1.01,0.32-1.14,0.94
		c-0.63,3.14-2.28,5.86-3.56,8.73c-1.41,1.88-3.23,3.41-4.73,5.2c-2.35,2.8-4.95,5.12-8.64,5.93c-2.16-0.41-4.31,0.16-6.47,0.06
		c-1.44-0.29-2.9-0.5-4.28-1.05c-0.89-0.43-1.53-1.66-2.81-0.9c0,0,0,0,0,0c-0.29,0.21-0.65,0.37-0.86,0.65
		c-1,1.33-2.27,2.4-3.41,3.59c0,0,0,0,0,0c-3.08,3.23-7.16,4.77-11.26,5.86c-4.62,1.22-9.31,0.68-13.65-1.62c0,0,0,0,0,0
		c-0.86-0.91-1.88-1.65-2.75-2.52c-0.88-0.87-1.18-0.47-1.48,0.37c-0.53,1.44-1.08,2.88-1.82,4.23v0c-0.38,0.48-0.65,1-0.84,1.58
		c-1.52,4.61-4.66,7.86-8.71,10.33c-1.83,1.12-3.87,1.59-5.94,1.98c-1.78-0.11-3.54,0.13-5.31,0.26c-1.08-0.4-2.22-0.15-3.33-0.3
		c0,0,0,0,0,0c-2.76-0.77-5.51-1.55-8.27-2.32c-1.51-0.63-2.86-1.52-4.15-2.5c0,0,0,0,0,0c-1.42-1.19-2.92-2.29-4.22-3.62
		c-0.65-0.67-1.21-0.6-1.56,0.29c-0.38,0.97-0.82,1.89-1.61,2.6c0,0,0,0,0,0c-0.96,0.58-1.88,1.23-2.87,1.73
		c-2.04,1.02-4.12,1.96-6.19,2.94c-0.84,0.2-1.72,0.32-2.53,0.62c-1.38,0.5-2.89-0.12-4.24,0.56c-1.8-0.32-3.62-0.35-5.44-0.27l0,0
		c-0.28-0.15-0.52-0.38-0.87-0.37c-0.62-0.63-1.52-0.11-2.18-0.55c0,0,0,0,0,0c0,0,0,0,0,0c-1.28-0.21-2.56-0.42-3.84-0.63
		c-0.33-0.13-0.66-0.29-0.98-0.41c-0.98-0.38-1.67-1.42-2.88-1.26c-1.48-1.11-2.96-2.22-4.44-3.32c-1.51-1.49-3.21-2.78-4.51-4.48
		c-0.37-0.51-0.81-0.42-1.23-0.1c-0.51,0.39-0.89,0.89-1.09,1.51c0,0,0,0,0,0c-0.56,0.73-1.32,1.15-2.13,1.54
		c-1.25,0.6-2.57,0.95-3.92,1.23c-2.97,0.6-5.98,0.86-9.01,0.75c-0.78-0.19-1.55-0.37-2.33-0.56c-0.75-0.43-1.71,0.06-2.42-0.55
		c-0.35-0.24-0.72-0.44-1.17-0.27c-1.01-0.6-2.15-0.88-3.24-1.28c0,0,0,0,0,0c-0.2-0.13-0.39-0.32-0.61-0.36
		c-0.69-0.13-1.08-1.62-2.07-0.48c-0.03,0.04-0.31-0.06-0.31-0.09c0.07-1.28-1.26-1.38-1.82-2.13c-0.55-0.75-1.34-1.32-2.02-1.97
		c-1.65-2.06-2.29-4.58-3.17-6.99l0,0c-0.42-0.77,0.04-1.84-0.81-2.47c0.15-0.46-0.03-0.96,0.24-1.42c0.18-0.3,0.31-0.75,0.02-1.03
		c-0.4-0.38-0.73,0.06-1.07,0.23c-0.29,0.15-0.59,0.27-0.87,0.43c-2.08,1.22-4.46,1.29-6.73,1.82c-0.66-0.24-1.29,0.11-1.94,0.11
		c0,0,0,0,0,0c-1.77,0.01-3.53,0.06-5.3,0.03c-0.94-0.02-1.98-0.48-2.79-0.2c-1.48,0.52-2.84,0.27-4.27,0.04
		c-0.54-0.09-1.11-0.3-1.64,0.1c-1.88-1.25-4.03-1.82-6.19-2.38c-0.72-0.46-1.44-0.92-2.17-1.38c-0.05-1.31-1.09-1.69-2.05-2.15
		c0,0,0,0,0,0c0,0,0,0,0,0c-0.52-1.33-1.83-1.84-2.8-2.71c-0.54-0.54-0.9-1.27-1.66-1.58c-0.23,0.76,0.11,1.34,0.55,1.94
		c1.36,1.87,2.95,3.48,4.86,4.79c0.9,0.81,1.87,1.5,3.1,1.71l0,0c0.71-0.1,0.89,0.7,1.46,0.87c1.58,0.48,3.1,1.2,4.8,1.15
		c0.1,0.27,0.24,0.47,0.56,0.57c1.83,0.58,3.75,0.49,5.61,0.57c1.45,0.06,2.95,0.03,4.43-0.11c1.02-0.1,2.06,0.05,3.04-0.35
		c0.91,0.14,1.89,0.71,2.57-0.45c1.54,0.83,2.9-0.03,4.24-0.57c0.98-0.39,2.06-0.19,3.01-0.69c0.23-0.12,0.17,0.39,0.33,0.55l0,0
		c0.32,0.9,0.17,1.96,0.91,2.73l0,0c-0.04,1.06,0.5,1.96,0.75,2.95c0.39,1.56,1.17,2.92,2.13,4.19v0c0.16,0.36,0.22,0.8,0.48,1.06
		c1.62,1.62,3.06,3.44,5.06,4.65c2.18,1.32,4.32,2.73,7.02,2.69c0.56,0.06,1.12,0.18,1.68,0.17c2.87-0.05,5.74-0.12,8.58-0.52
		c3.65-0.52,7.28-1.18,9.98-4.08c0.55-0.59,1.18-0.59,1.66,0.05c0.84,1.13,2.15,1.85,2.7,3.22c0.13,0.32,0.38,0.21,0.61,0.08
		c0.57,0.84,1.58,1.19,2.2,1.97c-0.63-0.02-0.96-0.68-1.78-0.83c0.63,0.84,1,1.68,2.11,1.09c0,0,0,0,0,0c0,0,0,0,0,0
		c0.99,0.53,1.71,1.48,2.86,1.75l0,0c1.26,0.4,2.3,1.33,3.66,1.52c2.49,0.85,5.01,1.49,7.65,1.61c1.57,0.1,3.14,0.5,4.72,0.06
		c2.59-0.17,5.24-0.03,7.6-1.44c0,0,0,0,0,0c2.74-0.97,5.56-1.76,7.79-3.81c0.48-0.44,1.27-0.56,1.38-1.37
		c0.21,0.04,0.43,0.52,0.63-0.03c0.11-0.3,0.24-0.6,0.35-0.9c0.51-1.5,0.79-1.56,1.88-0.5c0.97,0.94,1.83,2.03,3.1,2.62c0,0,0,0,0,0
		c1.43,0.94,2.69,2.16,4.36,2.73h0c0,0,0,0,0,0c0.11,0.16,0.19,0.39,0.34,0.47c2.6,1.37,5.32,2.33,8.31,2.26c0,0,0,0,0,0
		c1.17-0.22,2.32,0.48,3.49,0.1c1.88,0.01,3.78,0.18,5.6-0.48c5.72-0.69,9.72-4.01,12.97-8.48c0.92-1.26,1.15-2.83,1.94-4.14
		c0,0,0,0,0,0c0,0,0,0,0,0c0.9-1.79,1.83-3.57,2.68-5.39c0.32-0.68,0.56-0.47,0.96-0.15c0.63,0.5,1.03,1.25,1.8,1.6c0,0,0,0,0,0
		c2.25,1.94,5.03,2.67,7.83,2.85c4.12,0.26,8.12-0.59,11.84-2.52c2.26-1.18,4.58-2.26,6.25-4.3c1.23-0.94,2.23-2.12,3.25-3.27
		c0.46-0.52,0.94-0.65,1.49-0.34c1.91,1.08,4.04,1.45,6.15,1.84c0.5,0.09,0.97,0.69,1.55,0.18c0,0,0,0,0,0
		c1.03,0.31,2.05,0.56,3.13,0.23c0.68-0.4,1.62-0.02,2.2-0.74l0,0c1.39-0.22,2.74-0.72,3.79-1.56c3.56-2.86,6.9-5.98,9.79-9.53
		c0,0,0,0,0,0c1.42-2.3,2.51-4.78,3.37-7.32c0.41-1.21,0.82-1.98,2.08-2.59c3.48-1.67,6.44-4.11,8.97-7.04
		c0.48-0.95,1.25-1.75,1.45-2.84l0,0c1.21-1.1,1.52-2.64,1.98-4.1c0,0,0,0,0,0C-57.25,201.87-57.65,200.3-57.64,198.81
		C-57.64,198.81-57.64,198.81-57.64,198.81z"/>
	<path d="M-44.65,163.08c0.28-1.44,0.73-2.85,0.33-4.35c-0.2-0.75-0.41-1.55-0.06-2.33c0.06-1.24-0.83-2.25-0.83-3.47c0,0,0,0,0,0
		c-0.37-0.96-0.95-1.89-1.07-2.88c-0.2-1.62-1-3-1.49-4.5c-0.09-0.28-0.25-0.86-0.67-0.7c-0.49,0.18-0.25,0.69-0.12,1.05
		c0.53,1.43,0.89,2.94,1.51,4.31c0.42,0.94,0.08,2.25,1.26,2.84l0,0c0,0,0,0,0,0c-0.1,0.31-0.19,0.63-0.29,0.94
		c-0.44,1.02,0.23,2,0.08,3.01c0.03,0.18,0.07,0.36,0.1,0.54c-0.12,0.48,0.2,0.88,0.23,1.33l0,0c0.15,1.44,0.3,2.89,0.45,4.33
		c-0.05,0.06-0.13,0.11-0.14,0.18c-0.78,4.31-2.2,8.32-5.32,11.54c-0.72,0.62-1.42,1.25-2.16,1.85c-0.22,0.18-0.35,0.37-0.2,0.6
		c0.17,0.26,0.4,0.11,0.63,0.02c0.83-0.32,1.43-0.88,1.82-1.66c0.4-0.15,0.63-0.5,0.9-0.79c2.02-2.23,3.39-4.84,4.29-7.69
		C-44.96,165.9-44.42,164.55-44.65,163.08z"/>
	<path d="M-58.45,180.17c1.96,0.07,3.41-1.17,5.02-2c0.22-0.11,0.08-0.35,0-0.54c-0.2-0.44-0.43-0.18-0.67-0.04
		c-1.44,0.92-3.06,1.42-4.65,2c-0.75-0.21-1.03,0.23-1.17,0.84c-0.08,0.37,0.06,0.7,0.45,0.7c0.6,0,0.94-0.35,0.91-0.99
		C-58.53,180.15-58.49,180.17-58.45,180.17z"/>
	<path d="M-59.14,183.2c-0.01,0.01-0.01,0.01-0.02,0.02l0,0c0,0,0,0,0,0c0,0,0,0,0,0c0,0,0,0,0,0c0.01,0,0.01,0,0.02,0c0,0,0,0,0,0
		C-59.14,183.21-59.14,183.21-59.14,183.2z"/>
	<path d="M-58.9,182.98c0.74-0.18,0.44-0.57,0.21-0.94c-0.19-0.29-0.37-0.8-0.77-0.6c-0.5,0.26-0.11,0.66,0.06,1.01
		c0.12,0.24,0.18,0.51,0.27,0.76C-59.06,183.12-58.99,183-58.9,182.98z"/>
	<path d="M-290.76,233.35c0.44,0.88,1.13,0.79,1.8,0.75c0,0,0,0,0,0h0c-0.15,0.47,0.16,0.69,0.52,0.78c0.89,0.2,1.77,0.56,2.77,0.29
		c-1.08-0.41-2.16-0.82-3.25-1.24C-289.41,233.4-290.02,233.34-290.76,233.35z"/>
</g>
<g>
	<path d="M90.54,253.72c-0.01,0-0.02,0-0.03,0c0,0.01,0.01,0.02,0.01,0.02l0,0c0.01,0,0.02,0,0.02,0.01
		C90.54,253.74,90.54,253.73,90.54,253.72L90.54,253.72z"/>
	<path d="M86.54,243.94c-0.01-2.09-0.45-2.68-2.47-2.5c-2.36,0.2-4.72,0.34-7.09,0.51c-1.2-0.01-2.4-0.02-3.61-0.02
		c-0.66-0.02-1.33-0.05-1.99-0.07c0,0,0,0,0,0c-0.82-0.25-1.67-0.15-2.52-0.19c-2.52-0.11-5.06-0.16-7.3-1.57
		c-0.71-0.71-1.57-1.14-2.56-1.29c0,0,0,0,0,0c0,0,0,0,0,0c-0.76-0.53-1.58-0.98-2.25-1.6c-1.44-1.29-2.91-2.55-4.06-4.15
		c-1.87-2.61-2.94-5.51-3.37-8.67c-0.02-0.02-0.03-0.05-0.05-0.07c0.02,0.02,0.03,0.05,0.05,0.07c-0.07-2.88-0.35-5.75,0.06-8.63
		c0.13-0.87,0.54-1.85-0.2-2.69c0,0,0,0,0,0c-0.29-0.44-0.65-0.79-1.22-0.81c-3.04-0.14-5.97-0.8-8.91-1.53
		c-4.12-1.02-7.56-3.04-10.23-6.35c-1.48-1.83-2.58-3.89-3.7-5.95c-0.8-2.25-1.13-4.63-1.8-6.92c-0.05-0.04-0.08-0.1-0.1-0.16
		c0.03,0.06,0.07,0.11,0.1,0.16c-0.01-1.2,0-2.4-0.24-3.59c0,0,0,0,0,0c-0.04-2.46,0.52-4.83,1.04-7.21c0,0,0,0,0,0
		c0.35-0.45,0.48-1,0.55-1.55c0.29-2.01,0.99-3.87,2-5.62c0.6-1.05,0.41-1.7-0.61-2.42c-2.81-1.99-5.22-4.4-6.56-7.64
		c-0.86-2.08-1.45-4.26-2.16-6.4c0,0,0,0,0,0c-0.18-1.4-0.36-2.81-0.26-4.23c0,0,0,0,0,0c0.96-4.11,2.22-8.09,4.69-11.6
		c1.42-2.01,3.17-3.74,5.28-4.9c1.11-0.61,0.86-0.8,0.21-1.34c-1.66-1.39-2.29-3.18-2.29-5.32c0-0.98,0.1-1.95,0.13-2.93
		c0.6-2.48,1.4-4.93,2.5-7.18c1.52-3.11,3.33-6.11,6-8.46c3.93-2.84,7.38-6.44,12.31-7.67c0.68-0.22,1.49-0.4,0.43-1.23c0,0,0,0,0,0
		c0,0,0,0,0,0c-2.78-2.88-3.69-6.49-4.02-10.32c0,0,0,0,0,0c0.23-3.17,0.23-6.37,1.03-9.49c0.28-1.27,0.57-2.53,0.85-3.8
		c1.25-3.78,2.99-7.31,5.53-10.41c3.61-4.4,8.3-6.04,13.86-5.29c1.93,0.26,3.88,0.52,5.73,1.2c0.81,0.35,1.64,0.66,2.38,1.18
		c0.53,0.38,0.79,0.18,0.99-0.43c0.21-0.62-0.24-1.28,0.2-1.85c-0.02,0-0.05,0-0.07,0c0.02,0,0.04,0,0.07,0
		c0.09-0.19,0.21-0.37,0.26-0.56c0.79-3.07,2-5.99,3.9-8.51c4.31-5.69,8.91-11.13,14.95-15.12c0.76-0.51,1.64-0.86,2.28-1.54
		c0,0,0,0,0,0c1.77-1.04,3.65-1.82,5.64-2.32c0.83-0.26,1.74-0.22,2.43,0.14c1.99,1.02,4.22,1.17,6.26,1.95
		c1.7,1.69,3.77,2.96,5.28,4.87c0.21,0.27,0.62,0.07,0.86-0.2c0.28-0.04,0.51-0.03,0.69-0.4c1.12-2.35,2.72-4.34,4.71-6.02
		c0.66-0.38,0.83-1.14,1.33-1.67c1.9-1.99,3.99-3.77,6.1-5.53c0,0,0,0,0,0c0.88-0.15,1.42-0.89,2.16-1.29
		c2.66-1.45,5.31-2.93,8.16-4c1.59-0.35,3.15-0.86,4.78-1.05c1.22-0.14,2.43-0.35,3.65-0.53c2.07-0.03,4.09,0.44,6.14,0.56
		c0,0,0,0,0,0c0,0,0,0,0,0c0.15-0.06,0.3-0.12,0.45-0.17h0c1.38,1.34,2.76,2.68,4.14,4.01l0,0v0c1.06,0.63,1.12,2.1,2.26,2.66
		c0.14,0.3,0.25,0.63,0.44,0.9c0.33,0.46,0.58,1.06,1.31,1.01c0.77-0.05,0.8-0.76,1.11-1.22c1.26-0.81,1.78-2.36,3.05-3.11
		c1.15-0.69,2.29-1.37,3.32-2.23c0,0,0,0,0,0c0,0,0,0,0,0c1.05-0.59,2.1-1.18,3.14-1.78c0.72,0.05,0.94-0.55,1.3-0.98c0,0,0,0,0,0
		c0.08,0,0.16-0.01,0.24-0.04c0.83,0.32,0.9-0.68,1.52-0.84c1.68-0.43,3.27-1.1,4.62-2.24v0l0,0c4.08-1.24,8.23-2.18,12.43-2.88
		c1.83-0.3,3.69-0.42,5.54-0.62l0,0c1.52,0.32,3.06,0.2,4.59,0.35c0,0,0,0,0,0c1.99,0.61,3.79,1.55,5.43,2.86
		c1.31,1.04,1.95,2.56,3.01,3.76l0,0v0c0.78,0.31,1.37-0.05,1.95-0.52c1.6-1.28,3.22-2.59,5.1-3.38c4.31-1.81,8.87-2.62,13.51-2.93
		c2.05-0.14,4.1-0.16,6.15-0.23c0.46,0.31,0.98,0.24,1.49,0.26c3.08,0.11,6.11,0.45,8.97,1.68c2.19,0.94,4.3,2.08,6.23,3.5
		c1.26,0.92,2.21,2.13,2.46,3.76c0.28,1.79,0.43,1.88,2.32,1.36c4.37-1.54,8.88-1.31,13.29-0.6c4.15,0.67,8.23,1.88,12.04,3.77
		c1.04,0.74,2.2,1.27,3.24,2.03c3.44,2.55,6.11,5.56,6.57,10.04c0.1,0.98,0.82,0.77,1.45,0.71c1.89,0.07,3.88-0.16,5.49,1.1
		c1.69,1.32,3.53,2.47,4.97,4.1l0,0c0,0,0,0,0,0c3.19,3.54,6.37,7.09,8.67,11.31c0,0,0,0,0,0c0.11,0.36,0.19,0.74,0.34,1.09
		c1.75,4.01,1.44,10.01-2.65,12.54c-0.88,0.54-0.41,1.16,0.32,1.52c2.68,1.33,4.56,3.47,6.06,6c0.54,0.91,1.13,1.79,1.69,2.69
		c0.18,0.43,0.37,0.85,0.55,1.28c0.36,0.86,0.72,1.71,1.08,2.57c0,0,0,0,0,0l0,0c-0.35,0.65,0.72,0.83,0.5,1.35
		c-0.5,1.14,0.23,2.04,0.47,3.04c0.48,0.68,0.11,1.52,0.44,2.22c0,0,0,0,0,0c0.04,0.62,0.13,1.24,0.12,1.85
		c-0.02,1.24,0.04,2.51-0.78,3.57c-0.07,1.07-0.1,1.12-0.8,1.52c-0.2,0.63-1.14,0.93-0.79,1.8c-0.05,0.87,0.59,1.1,1.22,1.35
		c0.18,0.31,0.69,0.25,0.78,0.67c0,0,0.01,0.01,0.03,0.03l-0.03-0.03c-0.81,0.17-0.41,0.64-0.1,0.82c0.8,0.45,1.18,1.3,1.9,1.81
		c0.65,1.12,1.52,2.05,2.55,2.83c0.04,1.1,0.66,1.78,1.56,2.25c-0.19-0.79,0.08-1.73-0.74-2.26c0,0,0,0,0,0
		c-0.51-1.22-1.79-1.88-2.28-3.13c-0.7-1.03-1.53-1.9-2.8-2.23l0,0c0.41-0.21,0.53-0.46,0.31-0.93c-0.21-0.43-0.42-0.62-0.87-0.38
		c0,0,0,0,0,0c0,0,0,0,0,0c-0.4-0.42-0.28-0.84-0.02-1.28c0.49-0.81,0.8-1.68,1.05-2.59c0.7-2.15,1.07-4.35,0.77-6.62
		c-0.18-0.69,0.25-1.43-0.2-2.09c0,0,0,0,0,0c0.16-0.41-0.31-0.56-0.4-0.94c-0.28-1.2-0.9-2.32-1.38-3.47
		c-0.04-0.69-0.32-1.26-0.83-1.73c0.17-0.76-0.37-1.23-0.73-1.78l0,0c-0.68-1.67-1.73-3.13-2.88-4.48
		c-1.21-1.41-2.36-2.92-4.02-3.88c-1.23-0.71-1.32-0.9-0.24-1.82c1.65-1.41,2.34-3.3,2.82-5.3c0.65-2.73,0-5.32-0.99-7.86
		c-0.08-0.54-0.1-1.1-0.26-1.62c-0.84-2.65-2.62-4.67-4.55-6.58c-0.56-0.55-0.94-1.34-1.82-1.52c0,0,0,0,0,0
		c-2.04-2.14-4.37-3.95-6.61-5.86c-1-0.85-2.09-1.81-3.61-1.63c0,0,0,0,0,0c0,0,0,0,0,0c-0.76-0.03-1.51-0.03-2.27,0.14
		c-0.96,0.21-1.57-0.09-1.67-1.28c-0.18-2.03-1.04-3.84-2.39-5.36c-2.12-2.39-4.61-4.35-7.43-5.87c0,0,0,0,0,0
		c-3.05-1.77-6.44-2.53-9.79-3.5c-3.84-1.12-7.73-0.96-11.62-1.07c-1.62-0.05-3.32,0.24-4.8,1.12c0,0,0,0,0,0
		c-0.97,0.19-1.45-0.06-1.56-1.19c-0.11-1.24-0.67-2.43-1.65-3.23c-3.08-2.47-6.5-4.32-10.42-5.08c-1.99-0.39-4.01-0.67-6.01-1
		c0,0,0,0,0,0c-0.96-0.18-1.93-0.24-2.91-0.28c-4.27-0.14-8.51,0.19-12.63,1.33c-2.27,0.62-4.64,0.99-6.72,2.3
		c-1.54,0.97-3.09,1.93-4.57,2.99c-0.53,0.38-1.02,0.62-1.62,0.21c0,0,0,0,0,0c-1.83-3.59-4.71-5.76-8.69-6.44c0,0,0,0,0,0
		c-0.47-0.26-0.99-0.18-1.5-0.23c-4.54-0.4-8.96,0.34-13.37,1.34c-2.61,0.59-5.2,1.22-7.7,2.19c-1.97,0.9-3.95,1.8-5.92,2.69
		c-1.93,0.54-3.53,1.69-5.12,2.84c0,0,0,0,0,0c-0.78,0.15-1.32,0.67-1.89,1.16c-1.52,1.31-3.03,2.64-4.24,4.26
		c-0.66,1.05-1.28,0.7-1.87-0.07c-0.25-0.33-0.31-0.79-0.7-1.02c-0.33-1.07-0.83-2-1.99-2.37c0,0,0,0,0,0
		c-1.29-1.44-2.51-2.96-4.36-3.75c-1.39-1.15-2.91-0.57-4.4-0.34c0,0,0,0,0,0c-4.11,0.05-8.1,0.83-12.03,2.01c0,0,0,0,0,0
		c-3.68,0.75-6.54,3.03-9.52,5.09c-1.86,1.37-3.55,2.92-5.16,4.56c-0.97,0.99-2.24,1.71-2.82,3.06l0,0
		c-0.08-0.02-0.22-0.08-0.24-0.04c-1.25,1.52-2.57,2.98-3.61,4.66c-0.31,0.26-0.62,0.51-0.92,0.77c-0.31-0.72-1.05-1.04-1.57-1.56
		c-1.17-1.18-2.54-2.14-4.12-2.75c-2.44-1.48-4.97-2.61-7.92-2.32l0,0c-1.53,0.11-3.02,0.35-4.41,1.08
		c-5.23,2.72-9.63,6.42-13.63,10.73c-3.84,4.14-7.5,8.34-9.39,13.78c-0.52,1.48-0.96,2.99-1.43,4.48c0,0,0,0,0,0
		c-0.48-0.03-0.99,0.11-1.4-0.27c0,0,0,0,0,0c-0.6-0.6-1.33-0.87-2.15-1.02c-1.34-0.24-2.7-0.37-4.04-0.57
		c-5.13-0.75-9.67,0.27-13.53,3.96c-3.5,3.34-6.03,7.22-7.35,11.88v0l0,0c-0.64,1.13-0.69,2.46-1.22,3.63l0,0
		c-0.5,2.34-0.6,4.72-0.81,7.09c-0.17,1.95-0.09,3.91,0.71,5.76c0.12,0.79,0.1,1.64,0.38,2.37c0.68,1.84,1.24,3.77,2.91,5.05
		c0,0,0,0,0,0c0.27,0.47,0.46,0.96,0.32,1.52h0c0,0,0,0,0,0c-0.69-0.03-1.37,0.01-2,0.27c-3.36,1.4-6.25,3.56-9.06,5.81
		c-0.45,0.36-1.44,0.27-1.34,1.25c0,0,0,0,0,0c-1.29,1.24-2.43,2.61-3.52,4.02c-2.44,3.17-4.34,6.59-4.91,10.62c0,0,0,0,0,0l0,0
		c-0.94,3.25-0.96,6.38,1.12,9.27c0.47,0.66,0.47,1.16-0.28,1.71c-4.9,3.57-7.56,8.53-8.85,14.34l0,0h0
		c-0.36,1.42-0.6,2.85-0.38,4.32c0,0,0,0,0,0c0,0,0,0,0,0c-0.06,0.29-0.17,0.57-0.18,0.86c-0.1,2.54,0.69,4.93,1.52,7.25
		c0.84,2.37,2.18,4.51,4.29,6.05c0,0,0,0,0,0c1.12,0.77,2.22,1.57,3.36,2.3c0.87,0.56,0.93,1.22,0.45,2.06
		c-1.08,1.9-1.74,3.95-2.06,6.11c-1.05,2.02-1,4.25-1.26,6.43c-0.14,0.3-0.17,0.61-0.17,0.93c-0.31,2.28,0.12,4.52,0.65,6.75
		c0,0,0,0,0,0c0,0,0,0,0,0c0.14,1.54,0.59,3.01,1.15,4.44c0.01,0.08,0.04,0.15,0.09,0.22c0.9,2.48,2.47,4.58,4.05,6.62
		c2.03,2.61,4.51,4.83,7.81,5.7c3.28,0.86,6.52,1.92,9.95,2.12c0.91,0.05,1.87,0.09,2.74,0.48c0.22,1.08-0.24,2.08-0.4,3.11
		c-0.47,3.09-0.94,6.17,0.35,9.18c-0.07,1.31,0.53,2.43,1.03,3.58c0,0,0,0,0,0v0c1.05,3.22,3.16,5.7,5.66,7.85
		c3.5,3.01,7.36,5.32,12.2,5.29c0,0,0,0,0,0c0.37,0.07,0.74,0.19,1.11,0.2c2.16,0.03,4.3,0.13,6.45,0.39
		c1.21,0.14,2.48,0.48,3.7-0.08c0.21,0.02,0.42,0.06,0.63,0.04c1.65-0.16,3.29-0.31,4.94-0.49c0.87-0.09,1.28,0.15,1.44,1.12
		c0.11,0.65-0.15,1.22-0.02,1.85c0.49,2.58,1.64,4.87,2.87,7.14c0.35,0.66,0.84,1.17,1.66,1.14c-0.46-1.26-1.37-2.27-2-3.43
		C87.43,248.3,86.55,246.21,86.54,243.94z M201.97,14.65c-0.25-0.08-0.5-0.14-0.75-0.2C201.47,14.42,201.79,14.32,201.97,14.65z
		 M72.79,63.04C72.79,63.04,72.8,63.04,72.79,63.04C72.8,63.04,72.79,63.04,72.79,63.04z M48.83,225.69L48.83,225.69
		C48.83,225.68,48.83,225.68,48.83,225.69C48.83,225.69,48.83,225.69,48.83,225.69z"/>
	<path d="M332.73,168.2c0.45-0.97-0.25-1.78-0.37-2.67c-0.61-4.29-1.66-8.45-3.65-12.36c-0.37-0.73-0.61-0.71-1.15-0.6
		c0.09,0.23,0.14,0.48,0.26,0.7c1.19,2.11,2.11,4.34,2.66,6.69c0.64,2.74,1.06,5.52,1.58,8.29c-0.35,0.48,0.22,0.88,0.1,1.41
		c-0.22,1.01-0.04,2.08,0.11,3.11c-0.23,1.3-0.45,2.59-0.68,3.89c-0.48,1.25-1.08,2.47-1.26,3.82c0,0,0,0,0,0
		c-0.78,1.32-1.48,2.69-2.36,3.94c-0.8,1.14-1.95,2.06-2.65,3.25c-0.72,1.22-2.18,1.24-3.03,2.29c-0.3,0.37-0.96,0.57-0.94,1.23
		c0.09,3.37-0.96,6.54-1.61,9.78c-1.01,2.26-2.51,4.25-3.63,6.44c-1.75,3.42-3.88,6.41-7.47,8.1c-2.31,0.09-4.38,1.18-6.62,1.57
		c-1.54,0.04-3.09,0.17-4.63-0.07c-1.02-0.23-1.96-1.34-3.09-0.27c0,0,0,0,0,0c-0.25,0.29-0.58,0.53-0.73,0.86
		c-0.71,1.6-1.76,2.99-2.66,4.48c0,0,0,0,0,0c-2.41,4.03-6.22,6.57-10.17,8.65c-4.45,2.33-9.39,2.88-14.38,1.54c0,0,0,0,0,0
		c-1.09-0.73-2.31-1.25-3.41-1.93c-1.11-0.69-1.31-0.2-1.43,0.73c-0.2,1.6-0.43,3.2-0.87,4.76l0,0c-0.28,0.58-0.43,1.18-0.49,1.82
		c-0.48,5.08-2.93,9.15-6.51,12.64c-1.62,1.58-3.59,2.54-5.62,3.43c-1.85,0.31-3.6,0.97-5.38,1.52c-1.2-0.15-2.31,0.37-3.48,0.47
		c0,0,0,0,0,0c-3.01-0.15-6.01-0.3-9.02-0.44c-1.7-0.29-3.29-0.89-4.85-1.59c0,0,0,0,0,0c-1.74-0.89-3.53-1.67-5.18-2.73
		c-0.83-0.53-1.38-0.33-1.53,0.67c-0.17,1.08-0.4,2.13-1.04,3.05c0,0,0,0,0,0c-0.84,0.82-1.64,1.7-2.54,2.45
		c-1.85,1.53-3.77,2.98-5.66,4.46c-0.82,0.4-1.68,0.74-2.45,1.23c-1.3,0.84-2.99,0.55-4.21,1.56c-1.92,0.1-3.79,0.49-5.64,1l0,0
		c-0.32-0.09-0.62-0.27-0.97-0.17c-0.78-0.5-1.58,0.24-2.37-0.05c0,0,0,0,0,0c0,0,0,0,0,0c-1.36,0.08-2.72,0.17-4.08,0.25
		c-0.37-0.06-0.74-0.14-1.11-0.19c-1.09-0.16-2.05-1.06-3.25-0.62c-1.78-0.79-3.56-1.58-5.33-2.37c-1.9-1.17-3.94-2.1-5.68-3.54
		c-0.5-0.43-0.93-0.24-1.29,0.18c-0.43,0.52-0.7,1.12-0.77,1.8c0,0,0,0,0,0c-0.4,0.87-1.08,1.49-1.82,2.08
		c-1.14,0.91-2.42,1.58-3.73,2.18c-2.9,1.32-5.93,2.28-9.06,2.88c-0.84-0.01-1.68-0.02-2.51-0.03c-0.87-0.26-1.74,0.46-2.61,0.01
		c-0.42-0.16-0.84-0.29-1.26-0.01c-1.18-0.37-2.41-0.4-3.63-0.55c0,0,0,0,0,0c-0.24-0.08-0.48-0.24-0.71-0.23
		c-0.74,0.03-1.49-1.41-2.23-0.01c-0.02,0.04-0.33,0.01-0.34-0.02c-0.22-1.33-1.62-1.12-2.37-1.76c-0.74-0.64-1.68-1.04-2.53-1.55
		c-2.18-1.73-3.42-4.16-4.89-6.43h0c-0.61-0.7-0.39-1.89-1.41-2.34c0.04-0.51-0.25-0.98-0.08-1.51c0.11-0.35,0.15-0.84-0.22-1.06
		c-0.5-0.29-0.73,0.23-1.04,0.49c-0.26,0.22-0.54,0.41-0.79,0.64c-1.85,1.73-4.27,2.37-6.47,3.45c-0.74-0.09-1.3,0.42-1.97,0.57
		c0,0,0,0,0,0c-1.81,0.43-3.61,0.89-5.43,1.27c-0.97,0.2-2.15-0.03-2.91,0.45c-1.4,0.88-2.85,0.95-4.37,1.05
		c-0.58,0.04-1.21-0.05-1.65,0.48c-2.23-0.84-4.56-0.92-6.9-0.99c-0.85-0.3-1.7-0.61-2.54-0.91c-0.36-1.34-1.51-1.48-2.6-1.72
		c0,0,0,0,0,0c0,0,0,0,0,0c-0.85-1.24-2.31-1.46-3.5-2.12c-0.68-0.43-1.22-1.09-2.07-1.23c-0.05,0.83,0.42,1.35,1.02,1.87
		c1.83,1.6,3.84,2.88,6.1,3.77c1.11,0.62,2.27,1.1,3.58,1.03h0c0.71-0.27,1.07,0.51,1.71,0.55c1.73,0.12,3.46,0.5,5.19,0.05
		c0.17,0.26,0.36,0.42,0.71,0.45c2.01,0.17,3.96-0.38,5.89-0.73c1.5-0.28,3.04-0.66,4.52-1.15c1.02-0.34,2.12-0.43,3.04-1.07
		c0.96-0.07,2.1,0.28,2.53-1.06c1.78,0.49,2.96-0.71,4.21-1.58c0.91-0.63,2.07-0.68,2.92-1.42c0.21-0.18,0.26,0.36,0.47,0.49h0
		c0.54,0.85,0.64,1.97,1.57,2.58l0,0c0.21,1.09,0.98,1.9,1.46,2.85c0.77,1.51,1.88,2.72,3.17,3.8l0,0c0.24,0.33,0.42,0.77,0.74,0.97
		c2.04,1.28,3.94,2.81,6.28,3.58c2.55,0.84,5.07,1.78,7.82,1.11c0.59-0.07,1.19-0.08,1.76-0.22c2.93-0.72,5.86-1.47,8.67-2.55
		c3.62-1.39,7.19-2.92,9.27-6.52c0.43-0.74,1.07-0.88,1.71-0.34c1.12,0.96,2.64,1.39,3.52,2.67c0.21,0.3,0.44,0.13,0.64-0.06
		c0.78,0.73,1.9,0.85,2.72,1.5c-0.65,0.13-1.15-0.47-2.02-0.43c0.84,0.71,1.42,1.48,2.42,0.63c0,0,0,0,0,0c0,0,0,0,0,0
		c1.14,0.31,2.1,1.12,3.34,1.13l0,0c1.39,0.12,2.67,0.83,4.1,0.7c2.75,0.29,5.49,0.36,8.23-0.14c1.64-0.26,3.34-0.23,4.85-1.05
		c2.62-0.78,5.37-1.26,7.45-3.26c0,0,0,0,0,0c2.59-1.63,5.29-3.11,7.1-5.73c0.39-0.57,1.17-0.87,1.1-1.73
		c0.23-0.01,0.57,0.43,0.64-0.17c0.04-0.34,0.11-0.67,0.15-1c0.17-1.66,0.44-1.79,1.81-0.95c1.22,0.74,2.35,1.65,3.79,1.96
		c0,0,0,0,0,0c1.69,0.63,3.27,1.58,5.11,1.78h0c0,0,0,0,0,0c0.15,0.14,0.29,0.36,0.46,0.4c2.99,0.79,6,1.14,9.05,0.37c0,0,0,0,0,0
		c1.15-0.5,2.49-0.05,3.61-0.72c1.93-0.43,3.91-0.7,5.63-1.8c5.7-2.05,9.03-6.39,11.31-11.73c0.64-1.5,0.51-3.17,1.01-4.7
		c0,0,0,0,0,0c0,0,0,0,0,0c0.5-2.05,1.04-4.09,1.48-6.15c0.16-0.77,0.47-0.61,0.95-0.38c0.76,0.37,1.36,1.04,2.22,1.22c0,0,0,0,0,0
		c2.76,1.46,5.78,1.56,8.7,1.09c4.29-0.7,8.19-2.51,11.55-5.36c2.05-1.74,4.17-3.39,5.4-5.87c1.05-1.25,1.79-2.69,2.57-4.11
		c0.35-0.65,0.81-0.89,1.45-0.7c2.21,0.66,4.48,0.54,6.73,0.45c0.54-0.02,1.16,0.48,1.63-0.18c0,0,0,0,0,0
		c1.12,0.07,2.24,0.09,3.26-0.5c0.6-0.57,1.66-0.4,2.08-1.27l0,0c1.37-0.55,2.64-1.38,3.52-2.48c2.98-3.77,5.67-7.74,7.81-12.07
		c0,0,0,0,0,0c0.92-2.69,1.46-5.48,1.74-8.3c0.13-1.33,0.37-2.22,1.52-3.14c3.18-2.53,5.64-5.72,7.54-9.32
		c0.27-1.08,0.87-2.08,0.82-3.25l0,0c0.98-1.42,0.94-3.06,1.07-4.67c0,0,0,0,0,0C333.85,171.25,333.07,169.74,332.73,168.2
		C332.73,168.2,332.73,168.2,332.73,168.2z"/>
	<path d="M337.67,128.52c-0.05-1.54,0.08-3.09-0.68-4.54c-0.38-0.72-0.78-1.49-0.61-2.38c-0.23-1.28-1.37-2.11-1.67-3.36
		c0,0,0,0,0,0c-0.61-0.9-1.42-1.72-1.78-2.7c-0.59-1.62-1.73-2.85-2.59-4.27c-0.16-0.26-0.45-0.82-0.85-0.56
		c-0.46,0.3-0.1,0.77,0.12,1.11c0.88,1.35,1.6,2.81,2.56,4.07c0.65,0.86,0.61,2.29,1.96,2.61l0,0c0,0,0,0,0,0
		c-0.02,0.34-0.05,0.69-0.07,1.03c-0.21,1.15,0.7,2,0.79,3.07c0.08,0.18,0.16,0.36,0.24,0.53c-0.01,0.52,0.41,0.85,0.54,1.31l0,0
		c0.49,1.44,0.99,2.89,1.48,4.33c-0.04,0.07-0.11,0.15-0.1,0.22c0.21,4.6-0.3,9.04-2.75,13.08c-0.59,0.8-1.17,1.62-1.78,2.41
		c-0.19,0.24-0.27,0.46-0.06,0.67c0.24,0.23,0.44,0.02,0.65-0.13c0.78-0.52,1.26-1.23,1.48-2.13c0.38-0.25,0.53-0.66,0.74-1.03
		c1.55-2.76,2.34-5.76,2.6-8.89C338.01,131.49,338.26,129.98,337.67,128.52z"/>
	<path d="M327.53,149.29c2.03-0.39,3.22-2,4.67-3.23c0.2-0.17,0-0.38-0.13-0.55c-0.31-0.4-0.49-0.09-0.69,0.12
		c-1.26,1.28-2.81,2.17-4.3,3.14c-0.81-0.04-1,0.48-1,1.14c0,0.4,0.23,0.71,0.62,0.61c0.61-0.14,0.88-0.58,0.7-1.23
		C327.44,149.29,327.49,149.29,327.53,149.29z"/>
	<path d="M327.54,152.56c0,0.01-0.01,0.02-0.01,0.02l0,0c0,0,0,0,0,0c0,0,0,0,0,0c0,0,0,0,0,0c0.01,0,0.01,0,0.02,0c0,0,0,0,0,0
		C327.54,152.57,327.54,152.56,327.54,152.56z"/>
	<path d="M327.73,152.27c0.72-0.35,0.32-0.69-0.01-1.02c-0.26-0.25-0.56-0.73-0.93-0.43c-0.46,0.38,0.04,0.71,0.29,1.02
		c0.18,0.22,0.3,0.48,0.45,0.72C327.6,152.45,327.64,152.31,327.73,152.27z"/>
	<path d="M101.8,258.28c0.66,0.8,1.34,0.55,2.02,0.35c0,0,0,0,0,0h0c-0.04,0.52,0.33,0.67,0.72,0.67c0.96,0,1.94,0.16,2.91-0.35
		c-1.21-0.17-2.41-0.34-3.62-0.51C103.2,258.02,102.56,258.09,101.8,258.28z"/>
</g>
</svg>
